<?xml version="1.0" encoding="UTF-8"?>
<!DOCTYPE svg PUBLIC "-//W3C//DTD SVG 1.0//EN" "http://www.w3.org/TR/2001/REC-SVG-20010904/DTD/svg10.dtd">
<!-- Creator: CorelDRAW 2021 (64-Bit) -->
<svg xmlns="http://www.w3.org/2000/svg" xml:space="preserve" width="100mm" height="100mm" version="1.0" style="shape-rendering:geometricPrecision; text-rendering:geometricPrecision; image-rendering:optimizeQuality; fill-rule:evenodd; clip-rule:evenodd"
viewBox="0 0 10000 10000"
 xmlns:xlink="http://www.w3.org/1999/xlink"
 xmlns:xodm="http://www.corel.com/coreldraw/odm/2003">
 <defs>
  <style type="text/css">
   <![CDATA[
    .fil0 {fill:white}
   ]]>
  </style>
 </defs>
 <g id="Layer_x0020_1">
  <metadata id="CorelCorpID_0Corel-Layer"/>
  <path class="fil0" d="M8291.67 8421.76c-38.57,37.08 -69.81,84.79 -69.81,135.64 0,324.94 868.32,650 868.32,881.26 0,151.96 -415.29,196.24 -647.91,221.21 -1130.18,121.34 -2308.69,90.84 -3446.4,90.84 -2623.35,0 -4750,-2125.88 -4750,-4748.29 0,-2622.41 2126.65,-4748.29 4750,-4748.29 2623.35,0 4750,2125.88 4750,4748.29 0,1344.2 -556.04,2555.67 -1454.2,3419.34zm-4056.88 -4148.7c2.39,30.1 3.61,60.53 3.61,91.25 0,629.21 -510.26,1139.28 -1139.71,1139.28 -629.44,0 -1139.7,-510.07 -1139.7,-1139.28 0,-466.97 281.04,-868.32 683.25,-1044.26 46.5,586.56 537.39,1048.06 1136.1,1048.06 162.31,0 316.7,-33.92 456.45,-95.05zm1523.67 0c-2.38,30.1 -3.6,60.53 -3.6,91.25 0,629.21 510.26,1139.28 1139.7,1139.28 629.44,0 1139.7,-510.07 1139.7,-1139.28 0,-466.97 -281.03,-868.32 -683.25,-1044.26 -46.5,586.56 -537.38,1048.06 -1136.1,1048.06 -162.31,0 -316.7,-33.92 -456.45,-95.05z"/>
 </g>
</svg>
